<svg width="25" height="24" viewBox="0 0 25 24" fill="none" xmlns="http://www.w3.org/2000/svg">
<path d="M21 17L21 7C21 4 19.5 2 16 2L9 2C5.5 2 4 4 4 7L4 17C4 20 5.5 22 9 22L16 22C19.5 22 21 20 21 17ZM10 6.25C9.59 6.25 9.25 5.91 9.25 5.5C9.25 5.09 9.59 4.75 10 4.75L15 4.75C15.41 4.75 15.75 5.09 15.75 5.5C15.75 5.91 15.41 6.25 15 6.25L10 6.25ZM9.5 12C9.5 10.34 10.84 9 12.5 9C14.16 9 15.5 10.34 15.5 12C15.5 13.66 14.16 15 12.5 15C10.84 15 9.5 13.66 9.5 12ZM10 19.25C9.59 19.25 9.25 18.91 9.25 18.5C9.25 18.09 9.59 17.75 10 17.75L15 17.75C15.41 17.75 15.75 18.09 15.75 18.5C15.75 18.91 15.41 19.25 15 19.25L10 19.25Z" fill="#7F18D0"/>
</svg>
