<svg width="16" height="16" viewBox="0 0 16 16" fill="none" xmlns="http://www.w3.org/2000/svg">
<path d="M2.33334 11.3333L2.33334 4.66665C2.33334 2.66665 3.33334 1.33331 5.66667 1.33331L10.3333 1.33331C12.6667 1.33331 13.6667 2.66665 13.6667 4.66665L13.6667 11.3333C13.6667 13.3333 12.6667 14.6666 10.3333 14.6666L5.66667 14.6666C3.33334 14.6666 2.33334 13.3333 2.33334 11.3333Z" stroke="#7F18D0" stroke-width="1.5" stroke-miterlimit="10" stroke-linecap="round" stroke-linejoin="round"/>
<path d="M6 8C6 9.10457 6.89543 10 8 10C9.10457 10 10 9.10457 10 8C10 6.89543 9.10457 6 8 6C6.89543 6 6 6.89543 6 8Z" stroke="#7F18D0" stroke-width="1.5" stroke-miterlimit="10" stroke-linecap="round" stroke-linejoin="round"/>
<path d="M9.66667 3.66669L6.33334 3.66669" stroke="#7F18D0" stroke-width="1.5" stroke-miterlimit="10" stroke-linecap="round" stroke-linejoin="round"/>
<path d="M9.66667 12.3333L6.33334 12.3333" stroke="#7F18D0" stroke-width="1.5" stroke-miterlimit="10" stroke-linecap="round" stroke-linejoin="round"/>
</svg>
