<svg width="16" height="16" viewBox="0 0 16 16" fill="none" xmlns="http://www.w3.org/2000/svg">
<path fill-rule="evenodd" clip-rule="evenodd" d="M7.95851 2.29169C6.25481 2.29169 4.88634 3.66016 4.88634 5.36385C4.88634 7.06805 6.2547 8.43663 7.95851 8.43663C9.66232 8.43663 11.0307 7.06805 11.0307 5.36385C11.0307 3.66016 9.66221 2.29169 7.95851 2.29169ZM7.95851 3.29169C9.10992 3.29169 10.0307 4.21244 10.0307 5.36385C10.0307 6.5158 9.11 7.43663 7.95851 7.43663C6.80702 7.43663 5.88634 6.5158 5.88634 5.36385C5.88634 4.21244 6.8071 3.29169 7.95851 3.29169ZM4.19333 2.9196C4.46947 2.9196 4.69333 3.14346 4.69333 3.4196C4.69333 3.69575 4.46947 3.9196 4.19333 3.9196C3.40109 3.9196 2.75855 4.56186 2.75855 5.35377C2.75855 6.14568 3.40109 6.78794 4.19333 6.78794C4.46947 6.78794 4.69333 7.01179 4.69333 7.28794C4.69333 7.56408 4.46947 7.78794 4.19333 7.78794C2.8489 7.78794 1.75855 6.69807 1.75855 5.35377C1.75855 4.00947 2.8489 2.9196 4.19333 2.9196ZM14.1647 5.35377C14.1647 4.00947 13.0744 2.9196 11.7299 2.9196C11.4538 2.9196 11.2299 3.14346 11.2299 3.4196C11.2299 3.69575 11.4538 3.9196 11.7299 3.9196C12.5222 3.9196 13.1647 4.56186 13.1647 5.35377C13.1647 6.14568 12.5222 6.78794 11.7299 6.78794C11.4538 6.78794 11.2299 7.01179 11.2299 7.28794C11.2299 7.56408 11.4538 7.78794 11.7299 7.78794C13.0744 7.78794 14.1647 6.69807 14.1647 5.35377ZM13.6639 9.03667C13.3438 8.96442 13.0017 8.91503 12.6538 8.89104C12.3783 8.87204 12.1396 9.07996 12.1206 9.35545C12.1016 9.63094 12.3095 9.86967 12.585 9.88867C12.8827 9.9092 13.1744 9.95132 13.4581 10.0152C13.8992 10.1017 14.1868 10.2452 14.2581 10.3948C14.3118 10.5077 14.3118 10.6404 14.2576 10.7547C14.1872 10.9028 13.902 11.0455 13.4671 11.1349C13.1966 11.1906 13.0225 11.4549 13.0781 11.7254C13.1337 11.9959 13.3981 12.1701 13.6685 12.1144C14.3873 11.9666 14.9139 11.7031 15.1609 11.1837C15.3441 10.7976 15.3441 10.3498 15.1609 9.9647C14.9122 9.4434 14.3766 9.17619 13.6639 9.03667ZM3.80267 9.35545C3.78368 9.07996 3.54495 8.87204 3.26946 8.89104C2.9216 8.91503 2.57949 8.96442 2.24564 9.03955L2.10801 9.06867C1.47626 9.21302 0.99429 9.47828 0.762949 9.96463C0.579046 10.3494 0.579046 10.798 0.763142 11.1841C1.00909 11.7029 1.53561 11.9666 2.25471 12.1144C2.52519 12.1701 2.78955 11.9959 2.84517 11.7254C2.90079 11.4549 2.72661 11.1906 2.45612 11.1349C2.0214 11.0455 1.73648 10.9029 1.66627 10.7548C1.61156 10.64 1.61156 10.5081 1.66559 10.395C1.73692 10.2451 2.02423 10.1017 2.45148 10.018L2.67363 9.97256C2.89509 9.93161 3.115 9.90407 3.33826 9.88867C3.61375 9.86967 3.82167 9.63094 3.80267 9.35545ZM3.44473 11.4564C3.44473 9.86576 5.09002 9.30639 7.95851 9.30639L8.16174 9.30733C10.9104 9.33315 12.4723 9.89381 12.4723 11.4448C12.4723 12.9592 10.9792 13.5391 8.35982 13.5909L7.95851 13.5948C5.08345 13.5948 3.44473 13.0452 3.44473 11.4564ZM11.4723 11.4448C11.4723 10.7044 10.2853 10.3064 7.95851 10.3064C5.63404 10.3064 4.44473 10.7107 4.44473 11.4564C4.44473 12.1968 5.63139 12.5948 7.95851 12.5948C10.2823 12.5948 11.4723 12.1901 11.4723 11.4448Z" fill="#7F18D0"/>
</svg>
