<svg width="16" height="16" viewBox="0 0 16 16" fill="none" xmlns="http://www.w3.org/2000/svg">
<path d="M9.50782 10.6653H6.17448" stroke="#7F18D0" stroke-width="1.5" stroke-miterlimit="10" stroke-linecap="round" stroke-linejoin="round"/>
<path d="M8.44 1.67874L8.42 1.7254L6.48667 6.21207H4.58667C4.13334 6.21207 3.7 6.3054 3.30667 6.47207L4.47334 3.6854L4.5 3.61874L4.54667 3.51207C4.56 3.47207 4.57334 3.43207 4.59334 3.39874C5.46667 1.37874 6.45334 0.918737 8.44 1.67874Z" stroke="#7F18D0" stroke-width="1.5" stroke-linecap="round" stroke-linejoin="round"/>
<path d="M12.0333 6.34544C11.7333 6.25211 11.4133 6.21211 11.0933 6.21211H6.48666L8.42 1.72544L8.44 1.67877C8.54 1.71211 8.63333 1.75877 8.73333 1.79877L10.2067 2.41877C11.0267 2.75877 11.6 3.11211 11.9467 3.53877C12.0133 3.61877 12.0667 3.69211 12.1133 3.77877C12.1733 3.87211 12.22 3.96544 12.2467 4.06544C12.2733 4.12544 12.2933 4.18544 12.3067 4.23877C12.4867 4.79877 12.38 5.48544 12.0333 6.34544Z" stroke="#7F18D0" stroke-width="1.5" stroke-linecap="round" stroke-linejoin="round"/>
<path d="M14.3478 9.46555V10.7656C14.3478 10.8989 14.3411 11.0322 14.3345 11.1656C14.2078 13.4922 12.9078 14.6656 10.4411 14.6656H5.24114C5.08114 14.6656 4.92114 14.6522 4.76781 14.6322C2.64781 14.4922 1.51447 13.3589 1.37447 11.2389C1.35447 11.0856 1.34114 10.9256 1.34114 10.7656V9.46555C1.34114 8.12555 2.15447 6.97222 3.31447 6.47222C3.71447 6.30555 4.14114 6.21222 4.59447 6.21222H11.1011C11.4278 6.21222 11.7478 6.25889 12.0411 6.34555C13.3678 6.75222 14.3478 7.99222 14.3478 9.46555Z" stroke="#7F18D0" stroke-width="1.5" stroke-linecap="round" stroke-linejoin="round"/>
<path d="M4.47333 3.68542L3.30666 6.47209C2.14666 6.97209 1.33333 8.12543 1.33333 9.46543V7.51209C1.33333 5.61876 2.67999 4.03876 4.47333 3.68542Z" stroke="#7F18D0" stroke-width="1.5" stroke-linecap="round" stroke-linejoin="round"/>
<path d="M14.3457 7.51179V9.46512C14.3457 7.99846 13.3724 6.75179 12.0391 6.35179C12.3857 5.48512 12.4857 4.80512 12.3191 4.23846C12.3057 4.17846 12.2857 4.11846 12.2591 4.06512C13.4991 4.70512 14.3457 6.01846 14.3457 7.51179Z" stroke="#7F18D0" stroke-width="1.5" stroke-linecap="round" stroke-linejoin="round"/>
</svg>
